<svg width="180" height="180" viewBox="0 0 180 180" xmlns="http://www.w3.org/2000/svg">
  <style>
    @media (prefers-color-scheme: light) {
      .background { fill: black; }
      .foreground { fill: white; }
    }
    @media (prefers-color-scheme: dark) {
      .background { fill: white; }
      .foreground { fill: black; }
    }
  </style>
  <rect class="background" width="180" height="180" rx="37" />
  <svg x="14" y="14" width="152" height="152" viewBox="0 0 200 200">
    <path class="foreground" fill-rule="evenodd" d="M8.1,142.2L8.3,145.1L9.6,146.4L8.2,150.7L9.1,153.3L13.2,157.5L16.6,157.5L17.4,158.6L18.3,158.7L17.9,161.9L22.8,165.3L23,166.6L25.3,168.8L25.1,171.8L23.5,174.9L28.4,179L28.3,182.3L30.3,182.5L31.3,185.1L33.2,186.5L34.2,186.7L35.1,184.1L41,182.1L43.9,182.9L44.9,180.2L46,181.8L52,181.5L53.4,182.9L55.2,183.3L55.5,186.4L57.4,185.5L60,185.6L61.2,188.3L60.7,190.2L62.7,190.4L64.6,189.3L66.3,189.9L69.4,187.6L71.6,187.5L72.9,188.6L75.3,186.2L75.6,187.8L76.7,187.8L75.5,191.4L77.3,192L77.7,191.2L79.5,192L81.2,191.1L82.8,191.3L84.4,188.1L86.8,187.7L91.1,192L93.9,190.8L96.1,192L97.1,191.9L99.1,189.3L100.1,189.7L101.5,188.2L105,188.2L107.4,185.4L109.2,185.2L109.6,183.3L111.5,182.4L111.5,187.7L112.4,188.6L111.5,190.5L112.3,191.4L113.3,191.4L113.6,188.8L116.3,185.3L121.9,187.5L124.1,190.5L126.1,190.7L126.8,192L130.8,190.8L131.4,189.3L132.8,189.8L134.2,191.5L136.5,190.3L138.2,191.6L139.3,190.2L137.6,188.9L136.2,184.2L138.3,180.5L140.9,181.8L144.7,186.2L148.2,188L148.7,189.7L147.9,190.7L148.5,190.9L151.8,186.3L153.2,186.1L154.3,187.7L155.1,187.6L155.8,184.8L155,184.1L157.4,181.3L155.5,181.2L153.6,182.7L151.6,182.6L152.7,182.8L152.5,183.4L149.8,182.6L148.4,180.1L148.3,177.5L144.1,172.2L150.3,169.4L152,166.2L150.3,163.9L152,161.3L154.6,161.6L158.9,165.1L161.1,164.8L162.5,163L164.6,163.7L168.9,163.3L174.4,164.6L175.7,162.8L177.6,156.8L177.7,154.3L176.4,149.8L176.8,146.8L175.7,144.5L173.9,143.6L172.5,140.8L169.6,140.4L169.6,138.7L173,137.5L174.8,135.2L175.3,131.8L174.7,129.2L180.5,124.6L181.4,120.1L185.3,118.4L186.7,119.6L187.3,119.2L186.3,116.7L188.8,117.8L188.9,114.6L190.5,111.3L190.4,109.1L189.1,107.1L190.6,103.1L190.1,100.6L192,99.5L192,98.8L189.3,96.1L188.5,96.3L185.1,94.3L186,90.3L187,89.4L186.4,88.1L187.1,85.7L186.2,84.4L186.5,82.4L187.3,82L188.6,78.4L186.5,71.7L189.6,66.6L188,63.2L187.5,59.6L184,60.2L182.7,61.5L180.5,59.3L180.1,57.6L179.2,57.5L178.7,53.1L176.1,51.6L175.5,49.8L176.1,49L175.5,47L176.2,43.1L175.5,42.1L176.1,40.8L172.8,37.2L170.8,31.4L166.8,31.9L167.1,30L166.2,28.7L164.6,30.9L163.6,30.2L163.7,29.2L161.5,27.8L157.9,28.3L157,27.4L154.6,27.4L156.8,17L153.5,14.6L150.7,10.2L149,10.7L146.8,9.7L141.9,9.1L140.8,8L137,9L135.2,8.1L130.1,8.1L127.1,9.3L125.6,11.6L123,9.8L122.4,8.1L120.6,8.3L121.4,10.1L117,11.4L114.8,10.8L113.8,9.6L113.9,8L110.2,9.5L107.3,8.2L105.5,9.7L104.4,11.9L101.3,11.8L100.7,13.1L97,11.2L94.8,9L92.7,9.7L89.7,8.1L88.3,9.6L88.4,10.8L85.6,14.2L83.7,13.4L81.6,14.5L79.2,13L78.5,9L75.9,8L72.8,9.9L72.5,8.6L71.1,8.2L63.4,8.2L62.1,10.3L59.1,10.7L58.2,11.5L56.1,14.6L55.9,20.3L54.3,22.2L53.1,22L50.7,23.4L47.9,27.9L50.6,31.8L47.2,39.2L47.7,40.5L45.9,44.9L42,44.5L41.1,47.6L38.6,48.9L38.2,50.2L33.9,50.4L33.2,52.1L33.8,56.3L31.2,56.1L28.6,53.8L28.4,52.4L27.6,52.4L28.3,54.1L28,57.9L27.3,58.5L26.3,57.4L24.9,58.4L24.4,59.6L22.3,60.7L20.2,64.7L16.6,61.6L15.3,63.7L15.8,67.4L14.5,68.3L13.7,71.2L14.7,72.6L12.4,72.8L12.7,74.8L11.1,78.7L14.2,80.7L13.5,81.2L14.4,81.9L15.4,85.8L17,87L18.3,89.8L16.8,91.6L16.7,94.4L17.5,96.1L21.2,96.9L22,99.3L24.6,98.8L25.6,100.2L25.4,100.8L23.3,101L21.9,102.6L23.2,105.6L23,107.6L20.8,109.3L19.7,111.9L17.9,112.7L17.2,114.8L18.1,116.9L20.2,118.5L20.1,119.9L22.2,120.9L22.4,123.8L24.6,125.3L24.8,126.4L24.1,126.8L25.7,132.2L25.4,134.4L20.6,135.1L19.8,134.6L20.3,133.3L19.2,131.5L17.3,131.9L16.3,129.1L14.4,129.6L13.1,128.8L12,130.4L11.7,133.5L12.4,137.9L9,142.4L8.1,142.2ZM134.4,164.3L134.9,162.7L137.6,161.2L137.3,162.6L139.3,164.5L139.9,166.5L139.6,170.5L138.7,170.7L136.8,165.3L135.8,165.4L134.4,164.3ZM131.9,182.9L132.1,183.6L131.1,183.7L131.2,183.2L131.9,182.9ZM87.1,17.2L86.3,15.4L86.5,15.1L88,16.1L88,17.2L87.1,17.2ZM76.9,187.5L78.4,188.1L76.6,188.5L76.9,187.5ZM74.7,184.9L75.3,185.7L74.6,185.6L74.7,184.9ZM172,180.1L175.1,183.1L175,184.3L176.3,186.1L180.1,183.3L180.1,181.9L178.7,179.4L184,180.3L184,178.9L185.1,178.7L182.8,177.1L180.2,173L179.3,172.9L178.9,169.5L180.6,166.9L178.6,167.3L178,168.6L178.8,169.8L177.8,171.5L178.2,173.5L176.4,174.2L176.6,177.4L174.5,178.9L174.5,177.3L172,180.1ZM174.7,179.3L176.4,178.6L176.2,179.5L175.1,179.9L174.7,179.3ZM22.8,9.9L23.7,16.9L25.5,20.9L30.1,20.4L29.8,19.6L31.5,19.2L32.1,14.6L30.6,15.5L28,14.4L28.6,12.9L27.9,12.5L28.8,12.3L28.5,11L26.6,11.4L23.8,8.2L22.8,9.9ZM168.1,170.6L170.1,171.4L170.4,174.1L171.1,174.1L172.2,172.2L171.2,170.7L172.7,169.7L173,168.3L171.6,169.6L170.2,168.7L169.6,170L168.1,170.6ZM180.8,171.4L182.3,172.2L184.1,171.5L181.2,170.5L180.8,171.4ZM184.6,182.6L185.5,183.4L185.1,180.5L184.6,182.6Z" />
  </svg>
</svg>
